<?xml version="1.0" encoding="UTF-8" standalone="no"?>
<svg width="18px" height="19px" viewBox="0 0 18 19" version="1.1" xmlns="http://www.w3.org/2000/svg" xmlns:xlink="http://www.w3.org/1999/xlink">
    <!-- Generator: Sketch 39.1 (31720) - http://www.bohemiancoding.com/sketch -->
    <title>ic_calendar_orange</title>
    <desc>Created with Sketch.</desc>
    <defs></defs>
    <g id="Offers" stroke="none" stroke-width="1" fill="none" fill-rule="evenodd">
        <g id="Lista-Offers" transform="translate(-251.000000, -140.000000)" fill="#F5A623">
            <g id="Group" transform="translate(0.000000, 75.000000)">
                <g id="calendar.1" transform="translate(251.000000, 65.000000)">
                    <g id="calendar">
                        <g id="Page-1">
                            <g id="Icon-Set-Filled">
                                <path d="M8.4,10.6875 L9.6,10.6875 L9.6,9.5 L8.4,9.5 L8.4,10.6875 L8.4,10.6875 Z M8.4,15.4375 L9.6,15.4375 L9.6,14.25 L8.4,14.25 L8.4,15.4375 L8.4,15.4375 Z M13.2,10.6875 L14.4,10.6875 L14.4,9.5 L13.2,9.5 L13.2,10.6875 L13.2,10.6875 Z M13.2,15.4375 L14.4,15.4375 L14.4,14.25 L13.2,14.25 L13.2,15.4375 L13.2,15.4375 Z M3.6,15.4375 L4.8,15.4375 L4.8,14.25 L3.6,14.25 L3.6,15.4375 L3.6,15.4375 Z M16.8,4.75 L1.2,4.75 L1.2,3.5625 C1.2,2.907 1.7376,2.375 2.4,2.375 L4.8,2.375 L4.8,2.96875 C4.8,3.29709375 5.0682,3.5625 5.4,3.5625 C5.7318,3.5625 6,3.29709375 6,2.96875 L6,2.375 L12,2.375 L12,2.96875 C12,3.29709375 12.2682,3.5625 12.6,3.5625 C12.9318,3.5625 13.2,3.29709375 13.2,2.96875 L13.2,2.375 L15.6,2.375 C16.2624,2.375 16.8,2.907 16.8,3.5625 L16.8,4.75 L16.8,4.75 L16.8,4.75 Z M15.6,10.6875 C15.6,11.343 15.0624,11.875 14.4,11.875 L13.2,11.875 C12.5376,11.875 12,11.343 12,10.6875 L12,9.5 C12,8.8445 12.5376,8.3125 13.2,8.3125 L14.4,8.3125 C15.0624,8.3125 15.6,8.8445 15.6,9.5 L15.6,10.6875 L15.6,10.6875 L15.6,10.6875 Z M15.6,15.4375 C15.6,16.093 15.0624,16.625 14.4,16.625 L13.2,16.625 C12.5376,16.625 12,16.093 12,15.4375 L12,14.25 C12,13.5945 12.5376,13.0625 13.2,13.0625 L14.4,13.0625 C15.0624,13.0625 15.6,13.5945 15.6,14.25 L15.6,15.4375 L15.6,15.4375 L15.6,15.4375 Z M10.8,10.6875 C10.8,11.343 10.2624,11.875 9.6,11.875 L8.4,11.875 C7.7376,11.875 7.2,11.343 7.2,10.6875 L7.2,9.5 C7.2,8.8445 7.7376,8.3125 8.4,8.3125 L9.6,8.3125 C10.2624,8.3125 10.8,8.8445 10.8,9.5 L10.8,10.6875 L10.8,10.6875 L10.8,10.6875 Z M10.8,15.4375 C10.8,16.093 10.2624,16.625 9.6,16.625 L8.4,16.625 C7.7376,16.625 7.2,16.093 7.2,15.4375 L7.2,14.25 C7.2,13.5945 7.7376,13.0625 8.4,13.0625 L9.6,13.0625 C10.2624,13.0625 10.8,13.5945 10.8,14.25 L10.8,15.4375 L10.8,15.4375 L10.8,15.4375 Z M6,10.6875 C6,11.343 5.4624,11.875 4.8,11.875 L3.6,11.875 C2.9376,11.875 2.4,11.343 2.4,10.6875 L2.4,9.5 C2.4,8.8445 2.9376,8.3125 3.6,8.3125 L4.8,8.3125 C5.4624,8.3125 6,8.8445 6,9.5 L6,10.6875 L6,10.6875 L6,10.6875 Z M6,15.4375 C6,16.093 5.4624,16.625 4.8,16.625 L3.6,16.625 C2.9376,16.625 2.4,16.093 2.4,15.4375 L2.4,14.25 C2.4,13.5945 2.9376,13.0625 3.6,13.0625 L4.8,13.0625 C5.4624,13.0625 6,13.5945 6,14.25 L6,15.4375 L6,15.4375 L6,15.4375 Z M15.6,1.1875 L13.2,1.1875 L13.2,0.59375 C13.2,0.266 12.9318,0 12.6,0 C12.2682,0 12,0.266 12,0.59375 L12,1.1875 L6,1.1875 L6,0.59375 C6,0.266 5.7318,0 5.4,0 C5.0682,0 4.8,0.266 4.8,0.59375 L4.8,1.1875 L2.4,1.1875 C1.0746,1.1875 0,2.25090625 0,3.5625 L0,16.625 C0,17.9365938 1.0746,19 2.4,19 L15.6,19 C16.9254,19 18,17.9365938 18,16.625 L18,3.5625 C18,2.25090625 16.9254,1.1875 15.6,1.1875 L15.6,1.1875 L15.6,1.1875 Z M3.6,10.6875 L4.8,10.6875 L4.8,9.5 L3.6,9.5 L3.6,10.6875 L3.6,10.6875 Z" id="ic_calendar_orange"></path>
                            </g>
                        </g>
                    </g>
                </g>
            </g>
        </g>
    </g>
</svg>