<?xml version="1.0" encoding="UTF-8" standalone="no"?>
<svg width="14px" height="20px" viewBox="0 0 14 20" version="1.1" xmlns="http://www.w3.org/2000/svg" xmlns:xlink="http://www.w3.org/1999/xlink">
    <!-- Generator: Sketch 39.1 (31720) - http://www.bohemiancoding.com/sketch -->
    <title>ic_location_orange</title>
    <desc>Created with Sketch.</desc>
    <defs></defs>
    <g id="Offers" stroke="none" stroke-width="1" fill="none" fill-rule="evenodd">
        <g id="Lista-Offers" transform="translate(-26.000000, -177.000000)" fill="#F6A623">
            <g id="Group" transform="translate(0.000000, 75.000000)">
                <path d="M33,102 C29.1,102 26,105.1 26,109 C26,114.2 33,122 33,122 C33,122 40,114.2 40,109 C40,105.1 36.9,102 33,102 L33,102 Z M33,111.5 C31.6,111.5 30.5,110.4 30.5,109 C30.5,107.6 31.6,106.5 33,106.5 C34.4,106.5 35.5,107.6 35.5,109 C35.5,110.4 34.4,111.5 33,111.5 L33,111.5 Z" id="ic_location_orange"></path>
            </g>
        </g>
    </g>
</svg>