<?xml version="1.0" encoding="UTF-8" standalone="no"?>
<svg width="29px" height="28px" viewBox="0 0 29 28" version="1.1" xmlns="http://www.w3.org/2000/svg" xmlns:xlink="http://www.w3.org/1999/xlink">
    <!-- Generator: Sketch 39.1 (31720) - http://www.bohemiancoding.com/sketch -->
    <title>ic_phone</title>
    <desc>Created with Sketch.</desc>
    <defs></defs>
    <g id="Offers" stroke="none" stroke-width="1" fill="none" fill-rule="evenodd">
        <g id="Detalhe-Leads" transform="translate(-29.000000, -989.000000)" fill="#4A4A4A">
            <g id="Group-2" transform="translate(0.000000, 975.000000)">
                <path d="M56.2244942,17.1274669 L53.6266589,14.5368529 C52.9099524,13.821049 51.7464328,13.821049 51.0288236,14.5368529 L47.1320708,19.7180809 C46.5372225,20.594557 46.4153643,21.5928911 47.1320708,22.308695 L48.7225453,23.8946562 C47.5436805,25.4742989 46.1283207,27.1965608 44.5351382,28.78523 C42.7334428,30.5815095 40.7295532,32.2144087 38.9278579,33.555751 L37.3906399,32.0239489 C36.6739334,31.3081451 35.6728913,31.4291006 34.7928046,32.0239489 L29.5971341,35.90987 C28.726074,36.5101342 28.879525,37.7846802 29.5971341,38.500484 L32.1949694,41.0901954 C33.6301876,42.521803 35.4959713,42.0632553 37.3906399,41.0901954 C37.3906399,41.0901954 43.1251942,37.8803614 48.0347237,32.9843717 C52.6526963,28.3790362 56.2244942,22.308695 56.2244942,22.308695 C56.9691829,20.2659913 57.6597124,18.5581719 56.2244942,17.1274669" id="ic_phone"></path>
            </g>
        </g>
    </g>
</svg>