<?xml version="1.0" encoding="UTF-8" standalone="no"?>
<svg width="26px" height="26px" viewBox="0 0 26 26" version="1.1" xmlns="http://www.w3.org/2000/svg" xmlns:xlink="http://www.w3.org/1999/xlink">
    <!-- Generator: Sketch 39.1 (31720) - http://www.bohemiancoding.com/sketch -->
    <title>ic_whatsapp</title>
    <desc>Created with Sketch.</desc>
    <defs></defs>
    <g id="Offers" stroke="none" stroke-width="1" fill="none" fill-rule="evenodd">
        <g id="Artboard" transform="translate(-56.000000, -40.000000)" fill="#4A4A4A">
            <path d="M82,52.6651778 C82,59.6600444 76.2860667,65.3303556 69.2363111,65.3303556 C66.9982889,65.3303556 64.8957556,64.7583556 63.0665111,63.7544667 L56,66 L58.3038889,59.2047556 C57.1416889,57.2963556 56.4723333,55.0580444 56.4723333,52.6651778 C56.4723333,45.6703111 62.1868444,40 69.2363111,40 C76.2866444,40 82,45.6703111 82,52.6651778 L82,52.6651778 Z M69.2363111,42.0170222 C63.3187111,42.0170222 58.5052444,46.7938 58.5052444,52.6651778 C58.5052444,54.9950667 59.2647333,57.1527778 60.5494222,58.9080667 L59.2086889,62.8626667 L63.3325778,61.5519778 C65.0269111,62.6644889 67.0566444,63.3133333 69.2366,63.3133333 C75.1533333,63.3133333 79.9676667,58.5371333 79.9676667,52.6657556 C79.9676667,46.7943778 75.1536222,42.0170222 69.2363111,42.0170222 L69.2363111,42.0170222 Z M75.6817111,55.5820889 C75.6028444,55.4529556 75.3945556,55.3749556 75.0819778,55.2198222 C74.7688222,55.0646889 73.2302,54.3132889 72.9442,54.2101556 C72.6573333,54.1067333 72.4481778,54.0547333 72.2398889,54.3652889 C72.0316,54.6761333 71.4318667,55.3749556 71.249,55.5820889 C71.0664222,55.7898 70.8841333,55.8158 70.5709778,55.6603778 C70.2584,55.5052444 69.2504667,55.1770667 68.0553333,54.1197333 C67.1254,53.2969778 66.4973556,52.2812444 66.3147778,51.9701111 C66.1324889,51.6595556 66.2957111,51.4917111 66.452,51.3371556 C66.5929778,51.1979111 66.7651556,50.9746 66.9214444,50.7934667 C67.0783111,50.6120444 67.1303111,50.4829111 67.2340222,50.2754889 C67.3388889,50.0683556 67.2866,49.8872222 67.2080222,49.7315111 C67.1300222,49.5763778 66.5037111,48.0487333 66.2431333,47.4270444 C65.9825556,46.8059333 65.7222667,46.9093556 65.5394,46.9093556 C65.3571111,46.9093556 65.1482444,46.8833556 64.9396667,46.8833556 C64.7310889,46.8833556 64.3919333,46.9610667 64.1050667,47.2716222 C63.8184889,47.5824667 63.0104667,48.3335778 63.0104667,49.8609333 C63.0104667,51.3885778 64.1310667,52.8645111 64.2879333,53.0713556 C64.4442222,53.2782 66.4517111,56.5149111 69.6323778,57.758 C72.8133333,59.0005111 72.8133333,58.5859556 73.3870667,58.5339556 C73.9602222,58.4822444 75.2376889,57.7831333 75.4994222,57.0586 C75.7594222,56.3329111 75.7594222,55.7115111 75.6817111,55.5820889 L75.6817111,55.5820889 Z" id="ic_whatsapp"></path>
        </g>
    </g>
</svg>